Normalized EMG Linear Envelopes
nRows=49
nColumns=17

endheader
time	        VM	        VL	        RF	       GRA	        TA	   ADDLONG	   SEMIMEM	      BFLH	        GM	        GL	       TFL	   GLUTMAX	   GLUTMED	      PIRI	    OBTINT	        QF	
2.07	  0.405431	  0.385164	  0.041691	  0.508491	  0.119121	  0.130838	  0.423826	  0.355581	  0.206478	  0.151036	  0.042356	  0.128711	  0.084421	  0.377122	  0.669982	  0.443224	
2.0705	  0.407614	  0.388316	  0.042164	  0.503164	  0.119010	  0.130500	  0.418686	  0.351882	  0.205021	  0.150989	  0.043419	  0.129623	  0.084814	  0.377341	  0.670322	  0.441806	
2.071	  0.409784	  0.391437	  0.042641	  0.497817	  0.118902	  0.130160	  0.413526	  0.348169	  0.203556	  0.150944	  0.044501	  0.130538	  0.085203	  0.377527	  0.670642	  0.440344	
2.0715	  0.411938	  0.394526	  0.043119	  0.492454	  0.118797	  0.129818	  0.408349	  0.344445	  0.202083	  0.150902	  0.045605	  0.131454	  0.085589	  0.377679	  0.670944	  0.438838	
2.072	  0.414075	  0.397582	  0.043600	  0.487076	  0.118696	  0.129474	  0.403156	  0.340709	  0.200605	  0.150862	  0.046729	  0.132370	  0.085971	  0.377796	  0.671230	  0.437288	
2.0725	  0.416194	  0.400602	  0.044084	  0.481687	  0.118599	  0.129130	  0.397950	  0.336965	  0.199121	  0.150825	  0.047873	  0.133286	  0.086349	  0.377877	  0.671503	  0.435694	
2.073	  0.418292	  0.403586	  0.044571	  0.476291	  0.118506	  0.128785	  0.392733	  0.333214	  0.197635	  0.150791	  0.049039	  0.134200	  0.086723	  0.377923	  0.671764	  0.434058	
2.0735	  0.420370	  0.406532	  0.045060	  0.470891	  0.118418	  0.128441	  0.387508	  0.329458	  0.196146	  0.150761	  0.050225	  0.135112	  0.087094	  0.377933	  0.672017	  0.432381	
2.074	  0.422423	  0.409439	  0.045553	  0.465489	  0.118335	  0.128097	  0.382277	  0.325697	  0.194655	  0.150734	  0.051432	  0.136020	  0.087462	  0.377906	  0.672263	  0.430662	
2.0745	  0.424451	  0.412304	  0.046048	  0.460089	  0.118258	  0.127756	  0.377043	  0.321934	  0.193165	  0.150711	  0.052660	  0.136924	  0.087825	  0.377841	  0.672506	  0.428904	
2.075	  0.426452	  0.415126	  0.046548	  0.454692	  0.118186	  0.127417	  0.371806	  0.318171	  0.191675	  0.150693	  0.053909	  0.137823	  0.088186	  0.377739	  0.672747	  0.427108	
2.0755	  0.428423	  0.417904	  0.047050	  0.449302	  0.118121	  0.127082	  0.366571	  0.314408	  0.190187	  0.150678	  0.055179	  0.138715	  0.088542	  0.377598	  0.672990	  0.425274	
2.076	  0.430362	  0.420634	  0.047557	  0.443922	  0.118063	  0.126750	  0.361339	  0.310647	  0.188702	  0.150669	  0.056470	  0.139600	  0.088895	  0.377417	  0.673237	  0.423405	
2.0765	  0.432268	  0.423315	  0.048068	  0.438553	  0.118012	  0.126424	  0.356112	  0.306890	  0.187220	  0.150664	  0.057783	  0.140476	  0.089245	  0.377196	  0.673490	  0.421502	
2.077	  0.434139	  0.425945	  0.048582	  0.433199	  0.117968	  0.126103	  0.350893	  0.303138	  0.185743	  0.150664	  0.059116	  0.141343	  0.089591	  0.376934	  0.673752	  0.419565	
2.0775	  0.435972	  0.428522	  0.049101	  0.427861	  0.117932	  0.125789	  0.345685	  0.299392	  0.184271	  0.150670	  0.060471	  0.142198	  0.089932	  0.376631	  0.674024	  0.417597	
2.078	  0.437767	  0.431043	  0.049624	  0.422543	  0.117905	  0.125481	  0.340489	  0.295653	  0.182805	  0.150680	  0.061846	  0.143042	  0.090270	  0.376285	  0.674311	  0.415597	
2.0785	  0.439520	  0.433506	  0.050152	  0.417248	  0.117885	  0.125181	  0.335308	  0.291922	  0.181348	  0.150697	  0.063243	  0.143872	  0.090604	  0.375896	  0.674613	  0.413568	
2.079	  0.441231	  0.435911	  0.050685	  0.411977	  0.117875	  0.124890	  0.330144	  0.288202	  0.179898	  0.150718	  0.064661	  0.144688	  0.090933	  0.375465	  0.674933	  0.411509	
2.0795	  0.442897	  0.438254	  0.051222	  0.406733	  0.117873	  0.124607	  0.325000	  0.284491	  0.178459	  0.150746	  0.066100	  0.145488	  0.091259	  0.374992	  0.675273	  0.409424	
2.08	  0.444517	  0.440534	  0.051765	  0.401520	  0.117881	  0.124334	  0.319876	  0.280793	  0.177030	  0.150779	  0.067560	  0.146272	  0.091579	  0.374477	  0.675635	  0.407313	
2.0805	  0.446087	  0.442749	  0.052312	  0.396339	  0.117899	  0.124072	  0.314776	  0.277107	  0.175614	  0.150818	  0.069040	  0.147037	  0.091895	  0.373921	  0.676022	  0.405177	
2.081	  0.447608	  0.444897	  0.052865	  0.391194	  0.117926	  0.123820	  0.309700	  0.273434	  0.174210	  0.150863	  0.070542	  0.147782	  0.092205	  0.373325	  0.676435	  0.403017	
2.0815	  0.449075	  0.446978	  0.053423	  0.386086	  0.117963	  0.123579	  0.304651	  0.269775	  0.172821	  0.150914	  0.072064	  0.148507	  0.092511	  0.372690	  0.676875	  0.400835	
2.082	  0.450487	  0.448988	  0.053988	  0.381018	  0.118011	  0.123351	  0.299630	  0.266131	  0.171446	  0.150970	  0.073607	  0.149210	  0.092810	  0.372018	  0.677346	  0.398633	
2.0825	  0.451842	  0.450926	  0.054558	  0.375993	  0.118070	  0.123135	  0.294640	  0.262503	  0.170088	  0.151032	  0.075171	  0.149890	  0.093105	  0.371309	  0.677847	  0.396411	
2.083	  0.453137	  0.452791	  0.055134	  0.371012	  0.118140	  0.122932	  0.289682	  0.258891	  0.168747	  0.151100	  0.076755	  0.150546	  0.093393	  0.370565	  0.678382	  0.394171	
2.0835	  0.454371	  0.454580	  0.055716	  0.366078	  0.118221	  0.122744	  0.284756	  0.255297	  0.167424	  0.151173	  0.078359	  0.151177	  0.093675	  0.369787	  0.678950	  0.391913	
2.084	  0.455543	  0.456292	  0.056305	  0.361193	  0.118313	  0.122569	  0.279866	  0.251721	  0.166120	  0.151251	  0.079983	  0.151781	  0.093950	  0.368977	  0.679555	  0.389639	
2.0845	  0.456650	  0.457926	  0.056901	  0.356358	  0.118416	  0.122410	  0.275012	  0.248164	  0.164836	  0.151333	  0.081627	  0.152359	  0.094218	  0.368135	  0.680197	  0.387351	
2.085	  0.457691	  0.459480	  0.057503	  0.351575	  0.118532	  0.122266	  0.270196	  0.244626	  0.163574	  0.151421	  0.083290	  0.152907	  0.094479	  0.367262	  0.680876	  0.385048	
2.0855	  0.458664	  0.460952	  0.058112	  0.346846	  0.118659	  0.122139	  0.265419	  0.241108	  0.162335	  0.151513	  0.084972	  0.153426	  0.094733	  0.366360	  0.681595	  0.382731	
2.086	  0.459569	  0.462343	  0.058728	  0.342173	  0.118799	  0.122028	  0.260683	  0.237611	  0.161119	  0.151610	  0.086674	  0.153914	  0.094979	  0.365429	  0.682355	  0.380403	
2.0865	  0.460404	  0.463649	  0.059351	  0.337558	  0.118950	  0.121935	  0.255988	  0.234135	  0.159928	  0.151711	  0.088394	  0.154371	  0.095217	  0.364470	  0.683155	  0.378063	
2.087	  0.461165	  0.464872	  0.059982	  0.333001	  0.119114	  0.121859	  0.251336	  0.230680	  0.158764	  0.151815	  0.090133	  0.154794	  0.095447	  0.363484	  0.683999	  0.375713	
2.0875	  0.461854	  0.466008	  0.060620	  0.328506	  0.119290	  0.121802	  0.246728	  0.227249	  0.157627	  0.151924	  0.091890	  0.155184	  0.095668	  0.362471	  0.684888	  0.373353	
2.088	  0.462466	  0.467059	  0.061265	  0.324073	  0.119479	  0.121764	  0.242164	  0.223839	  0.156519	  0.152036	  0.093665	  0.155538	  0.095880	  0.361434	  0.685823	  0.370985	
2.0885	  0.463003	  0.468022	  0.061917	  0.319703	  0.119680	  0.121745	  0.237647	  0.220454	  0.155440	  0.152151	  0.095457	  0.155857	  0.096083	  0.360373	  0.686808	  0.368610	
2.089	  0.463461	  0.468896	  0.062577	  0.315399	  0.119893	  0.121746	  0.233176	  0.217092	  0.154392	  0.152270	  0.097267	  0.156138	  0.096276	  0.359290	  0.687844	  0.366230	
2.0895	  0.463840	  0.469681	  0.063245	  0.311163	  0.120119	  0.121767	  0.228753	  0.213754	  0.153375	  0.152391	  0.099093	  0.156381	  0.096460	  0.358187	  0.688934	  0.363844	
2.09	  0.464139	  0.470375	  0.063920	  0.306995	  0.120358	  0.121809	  0.224378	  0.210442	  0.152392	  0.152514	  0.100935	  0.156586	  0.096634	  0.357065	  0.690081	  0.361454	
2.0905	  0.464356	  0.470977	  0.064602	  0.302897	  0.120609	  0.121873	  0.220053	  0.207155	  0.151442	  0.152640	  0.102794	  0.156752	  0.096798	  0.355925	  0.691289	  0.359060	
2.091	  0.464491	  0.471486	  0.065293	  0.298871	  0.120873	  0.121958	  0.215778	  0.203894	  0.150526	  0.152767	  0.104668	  0.156879	  0.096951	  0.354768	  0.692560	  0.356664	
2.0915	  0.464542	  0.471901	  0.065991	  0.294918	  0.121150	  0.122067	  0.211555	  0.200660	  0.149647	  0.152896	  0.106557	  0.156965	  0.097094	  0.353597	  0.693898	  0.354266	
2.092	  0.464509	  0.472222	  0.066696	  0.291040	  0.121439	  0.122199	  0.207383	  0.197452	  0.148803	  0.153026	  0.108460	  0.157012	  0.097226	  0.352411	  0.695306	  0.351866	
2.0925	  0.464392	  0.472448	  0.067410	  0.287237	  0.121740	  0.122355	  0.203265	  0.194272	  0.147997	  0.153157	  0.110378	  0.157018	  0.097347	  0.351214	  0.696789	  0.349466	
2.093	  0.464190	  0.472579	  0.068132	  0.283512	  0.122054	  0.122536	  0.199200	  0.191119	  0.147230	  0.153289	  0.112310	  0.156984	  0.097456	  0.350004	  0.698349	  0.347066	
2.0935	  0.463904	  0.472615	  0.068861	  0.279865	  0.122379	  0.122742	  0.195190	  0.187993	  0.146501	  0.153421	  0.114254	  0.156909	  0.097554	  0.348785	  0.699989	  0.344666	
2.094	  0.463533	  0.472555	  0.069599	  0.276298	  0.122717	  0.122975	  0.191235	  0.184896	  0.145812	  0.153554	  0.116211	  0.156793	  0.097639	  0.347557	  0.701714	  0.342268	
